<?xml version="1.0" encoding="utf-8"?>
<!-- Generator: Adobe Illustrator 24.3.0, SVG Export Plug-In . SVG Version: 6.00 Build 0)  -->
<svg version="1.1" id="Layer_1" xmlns="http://www.w3.org/2000/svg" xmlns:xlink="http://www.w3.org/1999/xlink" x="0px" y="0px"
	 viewBox="0 0 361 98" style="enable-background:new 0 0 361 98;" xml:space="preserve">
<style type="text/css">
	.st0{fill:#0F0D0E;}
</style>
<g>
	<path class="st0" d="M69.78,41.99H39.51c-0.78,0-1.41,0.63-1.41,1.42v14.8c0,0.78,0.63,1.42,1.41,1.42h11.81V78
		c0,0-2.65,0.9-9.98,0.9c-8.65,0-20.73-3.16-20.73-29.72c0-26.57,12.58-30.06,24.39-30.06c10.22,0,14.63,1.8,17.43,2.67
		c0.88,0.27,1.69-0.61,1.69-1.39L67.5,6.1c0-0.37-0.12-0.81-0.54-1.1c-1.14-0.81-8.08-4.7-25.62-4.7c-20.21,0-40.93,8.6-40.93,49.92
		c0,41.33,23.73,47.48,43.73,47.48c16.56,0,26.6-7.08,26.6-7.08c0.41-0.23,0.46-0.81,0.46-1.07V43.4
		C71.19,42.62,70.56,41.99,69.78,41.99z"/>
	<path class="st0" d="M225.76,5.25c0-0.79-0.62-1.42-1.4-1.42h-17.04c-0.78,0-1.41,0.64-1.41,1.42c0,0,0,32.93,0,32.93h-26.56V5.25
		c0-0.79-0.63-1.42-1.41-1.42H160.9c-0.78,0-1.41,0.64-1.41,1.42v89.18c0,0.79,0.63,1.43,1.41,1.43h17.04
		c0.78,0,1.41-0.64,1.41-1.43V56.28h26.56c0,0-0.05,38.14-0.05,38.14c0,0.79,0.63,1.43,1.41,1.43h17.08c0.78,0,1.4-0.64,1.41-1.43
		V5.25z"/>
	<g>
		<g>
			<path class="st0" d="M101.94,16.95c0-6.14-4.92-11.1-10.99-11.1c-6.06,0-10.99,4.96-10.99,11.1c0,6.13,4.92,11.1,10.99,11.1
				C97.02,28.05,101.94,23.08,101.94,16.95z"/>
			<path class="st0" d="M100.72,75.61c0-2.29,0-41.16,0-41.16c0-0.78-0.63-1.42-1.41-1.42H82.32c-0.78,0-1.48,0.8-1.48,1.59
				c0,0,0,49.53,0,58.98c0,1.73,1.08,2.25,2.48,2.25c0,0,7.25,0,15.31,0c1.68,0,2.09-0.82,2.09-2.28
				C100.72,90.4,100.72,78.02,100.72,75.61z"/>
		</g>
	</g>
	<path class="st0" d="M290.53,33.16h-16.91c-0.78,0-1.41,0.64-1.41,1.43v43.73c0,0-4.3,3.14-10.39,3.14c-6.1,0-7.72-2.77-7.72-8.74
		c0-5.98,0-38.13,0-38.13c0-0.79-0.63-1.43-1.41-1.43h-17.16c-0.77,0-1.41,0.64-1.41,1.43c0,0,0,23.29,0,41.02
		c0,17.73,9.88,22.07,23.48,22.07c11.15,0,20.15-6.16,20.15-6.16s0.43,3.25,0.62,3.63c0.19,0.38,0.7,0.77,1.24,0.77l10.92-0.05
		c0.77,0,1.41-0.64,1.41-1.42l-0.01-59.86C291.94,33.8,291.31,33.16,290.53,33.16z"/>
	<path class="st0" d="M336.75,31.16c-9.61,0-16.14,4.29-16.14,4.29V5.25c0-0.79-0.63-1.42-1.41-1.42h-17.09
		c-0.78,0-1.41,0.64-1.41,1.42v89.18c0,0.79,0.63,1.43,1.41,1.43c0,0,11.85,0,11.86,0c0.53,0,0.94-0.28,1.24-0.76
		c0.29-0.48,0.72-4.11,0.72-4.11s6.99,6.62,20.22,6.62c15.53,0,24.44-7.88,24.44-35.37C360.59,34.75,346.37,31.16,336.75,31.16z
		 M330.08,81.41c-5.87-0.18-9.84-2.84-9.84-2.84V50.32c0,0,3.92-2.41,8.74-2.84c6.09-0.55,11.96,1.29,11.96,15.82
		C340.94,78.63,338.29,81.65,330.08,81.41z"/>
	<path class="st0" d="M149.7,33.02h-12.78c0,0-0.02-16.88-0.02-16.89c0-0.64-0.33-0.96-1.07-0.96h-17.42c-0.68,0-1.04,0.3-1.04,0.95
		v17.45c0,0-8.73,2.11-9.32,2.28c-0.59,0.17-1.02,0.71-1.02,1.36v10.97c0,0.79,0.63,1.42,1.41,1.42h8.93c0,0,0,11.47,0,26.38
		c0,19.6,13.75,21.52,23.02,21.52c4.24,0,9.31-1.36,10.15-1.67c0.51-0.19,0.8-0.71,0.8-1.28l0.01-12.06c0-0.79-0.66-1.42-1.41-1.42
		c-0.74,0-2.65,0.3-4.61,0.3c-6.28,0-8.41-2.92-8.41-6.7c0-3.78,0-25.07,0-25.07h12.78c0.78,0,1.41-0.64,1.41-1.42V34.44
		C151.11,33.66,150.48,33.02,149.7,33.02z"/>
</g>
</svg>
