<?xml version="1.0" encoding="utf-8"?>
<!-- Generator: Adobe Illustrator 24.3.0, SVG Export Plug-In . SVG Version: 6.00 Build 0)  -->
<svg version="1.1" id="Layer_1" xmlns="http://www.w3.org/2000/svg" xmlns:xlink="http://www.w3.org/1999/xlink" x="0px" y="0px"
	 viewBox="0 0 504 118" style="enable-background:new 0 0 504 118;" xml:space="preserve">
<style type="text/css">
	.st0{fill-rule:evenodd;clip-rule:evenodd;fill:#221E1B;}
	.st1{fill:#221E1B;}
	.st2{fill:#0F0D0E;}
</style>
<g>
	<path class="st0" d="M60.39,0C27.04,0,0,27.04,0,60.39c0,26.68,17.3,49.32,41.3,57.3c3.02,0.56,4.13-1.31,4.13-2.91
		c0-1.44-0.06-6.2-0.08-11.24C28.54,107.19,25,96.42,25,96.42c-2.75-6.98-6.7-8.84-6.7-8.84c-5.48-3.75,0.41-3.67,0.41-3.67
		c6.06,0.43,9.26,6.22,9.26,6.22c5.39,9.23,14.13,6.56,17.57,5.02c0.54-3.9,2.11-6.57,3.83-8.08c-13.41-1.53-27.51-6.71-27.51-29.84
		c0-6.59,2.36-11.98,6.22-16.21c-0.63-1.52-2.69-7.66,0.58-15.98c0,0,5.07-1.62,16.61,6.19c4.82-1.34,9.98-2.01,15.12-2.03
		c5.13,0.02,10.3,0.69,15.13,2.03c11.53-7.81,16.59-6.19,16.59-6.19c3.29,8.32,1.22,14.46,0.59,15.98
		c3.87,4.23,6.21,9.62,6.21,16.21c0,23.19-14.13,28.3-27.57,29.8c2.17,1.87,4.1,5.55,4.1,11.18c0,8.08-0.07,14.58-0.07,16.57
		c0,1.61,1.09,3.49,4.15,2.9c23.98-7.99,41.26-30.62,41.26-57.29C120.78,27.04,93.74,0,60.39,0z"/>
	<path class="st1" d="M22.87,86.7c-0.13,0.3-0.61,0.39-1.04,0.18c-0.44-0.2-0.68-0.61-0.54-0.91c0.13-0.31,0.6-0.39,1.04-0.19
		C22.77,85.99,23.02,86.4,22.87,86.7L22.87,86.7z M22.13,86.15"/>
	<path class="st1" d="M25.32,89.43c-0.29,0.27-0.85,0.14-1.23-0.28c-0.4-0.42-0.47-0.98-0.18-1.25c0.3-0.27,0.84-0.14,1.24,0.28
		C25.54,88.6,25.62,89.16,25.32,89.43L25.32,89.43z M24.74,88.81"/>
	<path class="st1" d="M27.7,92.91c-0.37,0.26-0.98,0.02-1.35-0.52c-0.37-0.54-0.37-1.18,0.01-1.44c0.37-0.26,0.97-0.03,1.35,0.51
		C28.08,92,28.08,92.65,27.7,92.91L27.7,92.91z M27.7,92.91"/>
	<path class="st1" d="M30.96,96.27c-0.33,0.37-1.04,0.27-1.55-0.23c-0.53-0.49-0.67-1.18-0.34-1.54c0.34-0.37,1.04-0.26,1.56,0.23
		C31.15,95.21,31.31,95.91,30.96,96.27L30.96,96.27z M30.96,96.27"/>
	<path class="st1" d="M35.46,98.22c-0.15,0.47-0.83,0.69-1.51,0.49c-0.68-0.21-1.13-0.76-0.99-1.24c0.14-0.48,0.82-0.7,1.51-0.49
		C35.16,97.19,35.6,97.74,35.46,98.22L35.46,98.22z M35.46,98.22"/>
	<path class="st1" d="M40.4,98.58c0.02,0.5-0.56,0.91-1.28,0.92c-0.72,0.02-1.31-0.39-1.31-0.88c0-0.5,0.57-0.91,1.29-0.92
		C39.81,97.69,40.4,98.09,40.4,98.58L40.4,98.58z M40.4,98.58"/>
	<path class="st1" d="M45,97.8c0.09,0.49-0.41,0.98-1.13,1.12c-0.7,0.13-1.35-0.17-1.44-0.65c-0.09-0.5,0.42-1,1.12-1.13
		C44.27,97.01,44.91,97.31,45,97.8L45,97.8z M45,97.8"/>
</g>
<g>
	<path class="st2" d="M212.48,52.07h-30.27c-0.78,0-1.41,0.63-1.41,1.42v14.8c0,0.78,0.63,1.42,1.41,1.42h11.81v18.39
		c0,0-2.65,0.9-9.98,0.9c-8.65,0-20.73-3.16-20.73-29.72c0-26.57,12.58-30.06,24.39-30.06c10.22,0,14.63,1.8,17.43,2.67
		c0.88,0.27,1.69-0.61,1.69-1.39l3.38-14.3c0-0.37-0.12-0.81-0.54-1.1c-1.14-0.81-8.08-4.7-25.62-4.7
		c-20.21,0-40.93,8.6-40.93,49.92c0,41.33,23.73,47.48,43.73,47.48c16.56,0,26.6-7.08,26.6-7.08c0.41-0.23,0.46-0.81,0.46-1.07
		V53.49C213.89,52.71,213.26,52.07,212.48,52.07z"/>
	<path class="st2" d="M368.46,15.33c0-0.79-0.62-1.42-1.4-1.42h-17.04c-0.78,0-1.41,0.64-1.41,1.42c0,0,0,32.93,0,32.93h-26.56
		V15.33c0-0.79-0.63-1.42-1.41-1.42H303.6c-0.78,0-1.41,0.64-1.41,1.42v89.18c0,0.79,0.63,1.43,1.41,1.43h17.04
		c0.78,0,1.41-0.64,1.41-1.43V66.37h26.56c0,0-0.05,38.14-0.05,38.14c0,0.79,0.63,1.43,1.41,1.43h17.08c0.78,0,1.4-0.64,1.41-1.43
		V15.33z"/>
	<g>
		<g>
			<path class="st2" d="M244.64,27.04c0-6.14-4.92-11.1-10.99-11.1c-6.06,0-10.99,4.96-10.99,11.1c0,6.13,4.92,11.1,10.99,11.1
				C239.72,38.14,244.64,33.17,244.64,27.04z"/>
			<path class="st2" d="M243.42,85.7c0-2.29,0-41.16,0-41.16c0-0.78-0.63-1.42-1.41-1.42h-16.99c-0.78,0-1.48,0.8-1.48,1.59
				c0,0,0,49.53,0,58.98c0,1.73,1.08,2.25,2.48,2.25c0,0,7.25,0,15.31,0c1.68,0,2.09-0.82,2.09-2.28
				C243.42,100.49,243.42,88.1,243.42,85.7z"/>
		</g>
	</g>
	<path class="st2" d="M433.23,43.25h-16.91c-0.78,0-1.41,0.64-1.41,1.43V88.4c0,0-4.3,3.14-10.39,3.14c-6.1,0-7.72-2.77-7.72-8.74
		c0-5.98,0-38.13,0-38.13c0-0.79-0.63-1.43-1.41-1.43h-17.16c-0.77,0-1.41,0.64-1.41,1.43c0,0,0,23.29,0,41.02
		c0,17.73,9.88,22.07,23.48,22.07c11.15,0,20.15-6.16,20.15-6.16s0.43,3.25,0.62,3.63c0.19,0.38,0.7,0.77,1.24,0.77l10.92-0.05
		c0.77,0,1.41-0.64,1.41-1.42l-0.01-59.86C434.64,43.89,434.01,43.25,433.23,43.25z"/>
	<path class="st2" d="M479.45,41.24c-9.61,0-16.14,4.29-16.14,4.29v-30.2c0-0.79-0.63-1.42-1.41-1.42h-17.09
		c-0.78,0-1.41,0.64-1.41,1.42v89.18c0,0.79,0.63,1.43,1.41,1.43c0,0,11.85,0,11.86,0c0.53,0,0.94-0.28,1.24-0.76
		c0.29-0.48,0.72-4.11,0.72-4.11s6.99,6.62,20.22,6.62c15.53,0,24.44-7.88,24.44-35.37C503.29,44.84,489.06,41.24,479.45,41.24z
		 M472.78,91.49c-5.87-0.18-9.84-2.84-9.84-2.84V60.41c0,0,3.93-2.41,8.74-2.84c6.09-0.55,11.96,1.29,11.96,15.82
		C483.64,88.71,480.99,91.74,472.78,91.49z"/>
	<path class="st2" d="M292.4,43.11h-12.78c0,0-0.02-16.88-0.02-16.89c0-0.64-0.33-0.96-1.07-0.96h-17.42c-0.68,0-1.04,0.3-1.04,0.95
		v17.45c0,0-8.73,2.11-9.32,2.28c-0.59,0.17-1.02,0.71-1.02,1.36v10.97c0,0.79,0.63,1.42,1.41,1.42h8.93c0,0,0,11.47,0,26.38
		c0,19.6,13.75,21.52,23.02,21.52c4.24,0,9.31-1.36,10.15-1.67c0.51-0.19,0.8-0.71,0.8-1.28l0.01-12.06c0-0.79-0.66-1.42-1.41-1.42
		c-0.74,0-2.65,0.3-4.61,0.3c-6.28,0-8.41-2.92-8.41-6.7c0-3.78,0-25.07,0-25.07h12.78c0.78,0,1.41-0.64,1.41-1.42V44.53
		C293.81,43.74,293.18,43.11,292.4,43.11z"/>
</g>
</svg>
