<?xml version="1.0" encoding="utf-8"?>
<!-- Generator: Adobe Illustrator 24.3.0, SVG Export Plug-In . SVG Version: 6.00 Build 0)  -->
<svg version="1.1" id="Layer_1" xmlns="http://www.w3.org/2000/svg" xmlns:xlink="http://www.w3.org/1999/xlink" x="0px" y="0px"
	 viewBox="0 0 335 78" style="enable-background:new 0 0 335 78;" xml:space="preserve">
<style type="text/css">
	.st0{fill:#F9A11D;}
	.st1{fill:#2C3C69;}
</style>
<desc>Created with Fabric.js 3.6.3</desc>
<g>
	<g id="svg_17" transform="matrix(1 0 0 1 32.47 28.49)">
		<path class="st0" d="M13.09,7.47H5.05V3.34c0-3.3-2.68-5.98-5.98-5.98c-3.3,0-5.98,2.68-5.98,5.98v4.13h-8.04V3.34
			c0-7.73,6.29-14.02,14.02-14.02S13.09-4.39,13.09,3.34L13.09,7.47L13.09,7.47z"/>
	</g>
	<g id="svg_18" transform="matrix(1 0 0 1 32.47 53.02)">
		<path class="st1" d="M16.33-17.06h-34.52c-1.47,0-2.68,1.21-2.68,2.68v25.54c0,1.47,1.21,2.68,2.68,2.68h34.52
			c1.47,0,2.68-1.21,2.68-2.68v-25.54C19.01-15.85,17.81-17.06,16.33-17.06z M0.82-0.29v3.46c0,0.97-0.78,1.75-1.75,1.75
			s-1.75-0.78-1.75-1.75v-3.46c-1.08-0.61-1.8-1.76-1.8-3.09c0-1.96,1.59-3.55,3.55-3.55c1.96,0,3.55,1.59,3.55,3.55
			C2.62-2.05,1.89-0.9,0.82-0.29z"/>
	</g>
	<g id="svg_19" transform="matrix(1 0 0 1 7.54 31.31)">
		<path class="st0" d="M3.24,0.84h-8.33c-1.35,0-2.45-1.09-2.45-2.45s1.09-2.45,2.45-2.45h8.33c1.35,0,2.45,1.1,2.45,2.45
			S4.59,0.84,3.24,0.84z"/>
	</g>
	<g id="svg_20" transform="matrix(1 0 0 1 14.28 15.5)">
		<path class="st0" d="M2.37,3.55c-0.55,0-1.1-0.18-1.55-0.56l-6.59-5.42c-1.04-0.86-1.19-2.4-0.34-3.44
			c0.86-1.04,2.4-1.19,3.44-0.34l6.59,5.42c1.04,0.86,1.19,2.4,0.33,3.44C3.77,3.24,3.07,3.55,2.37,3.55z"/>
	</g>
	<g id="svg_21" transform="matrix(1 0 0 1 32.47 8.25)">
		<path class="st0" d="M-0.93,5.04c-1.35,0-2.45-1.1-2.45-2.45v-8.4c0-1.35,1.1-2.45,2.45-2.45s2.45,1.1,2.45,2.45v8.4
			C1.51,3.94,0.42,5.04-0.93,5.04z"/>
	</g>
	<g id="svg_24" transform="matrix(1 0 0 1 50.66 15.5)">
		<path class="st0" d="M-4.23,3.55c-0.71,0-1.41-0.3-1.89-0.89c-0.86-1.04-0.71-2.58,0.33-3.44l6.59-5.42
			c1.04-0.86,2.59-0.71,3.44,0.34c0.86,1.04,0.71,2.58-0.33,3.44l-6.59,5.42C-3.13,3.37-3.68,3.55-4.23,3.55z"/>
	</g>
	<g id="svg_25" transform="matrix(1 0 0 1 57.36 31.31)">
		<path class="st0" d="M3.27,0.84h-8.41c-1.35,0-2.45-1.09-2.45-2.45s1.09-2.45,2.45-2.45h8.41c1.35,0,2.45,1.1,2.45,2.45
			S4.62,0.84,3.27,0.84z"/>
	</g>
	<g transform="translate(-76.621 -36.87)">
		<g transform="matrix(.98906 0 0 .97806 2.6449 1.3386)">
			<g>
				<path class="st1" d="M150.3,104.69V73.28h7.63v24.8h12.15v6.61L150.3,104.69L150.3,104.69z"/>
				<path class="st1" d="M196.33,94v0.89c0,0.3-0.01,0.58-0.04,0.84h-16.01c0.06,0.62,0.24,1.18,0.56,1.69
					c0.31,0.5,0.71,0.94,1.2,1.31c0.49,0.37,1.04,0.66,1.64,0.86c0.61,0.21,1.23,0.31,1.89,0.31c1.15,0,2.13-0.21,2.93-0.64
					c0.8-0.43,1.45-0.98,1.95-1.66l5.06,3.19c-1.04,1.51-2.4,2.67-4.1,3.48c-1.7,0.81-3.68,1.22-5.92,1.22
					c-1.66,0-3.22-0.26-4.7-0.78c-1.48-0.52-2.77-1.27-3.88-2.26c-1.11-0.99-1.98-2.21-2.62-3.66c-0.64-1.45-0.95-3.11-0.95-4.97
					c0-1.8,0.31-3.44,0.93-4.9c0.62-1.46,1.46-2.71,2.53-3.73c1.06-1.02,2.32-1.81,3.77-2.37c1.45-0.56,3.02-0.84,4.7-0.84
					c1.63,0,3.12,0.27,4.48,0.82c1.36,0.55,2.53,1.34,3.51,2.37c0.98,1.04,1.74,2.29,2.28,3.77C196.06,90.42,196.33,92.11,196.33,94
					L196.33,94z M189.63,91.21c0-1.15-0.36-2.14-1.09-2.97c-0.72-0.83-1.81-1.24-3.26-1.24c-0.71,0-1.36,0.11-1.95,0.33
					c-0.59,0.22-1.11,0.53-1.55,0.91c-0.44,0.39-0.8,0.84-1.06,1.35c-0.27,0.52-0.41,1.06-0.44,1.62
					C180.27,91.21,189.63,91.21,189.63,91.21z"/>
				<path class="st1" d="M207.95,88.1v8.46c0,1.04,0.2,1.82,0.6,2.34c0.4,0.52,1.12,0.78,2.15,0.78c0.35,0,0.73-0.03,1.13-0.09
					c0.4-0.06,0.73-0.15,1-0.27l0.09,5.32c-0.5,0.18-1.14,0.33-1.91,0.47c-0.77,0.13-1.54,0.2-2.31,0.2c-1.48,0-2.72-0.19-3.73-0.56
					c-1.01-0.37-1.81-0.9-2.42-1.6c-0.61-0.7-1.04-1.53-1.31-2.49c-0.27-0.96-0.4-2.04-0.4-3.22V88.1h-3.55v-5.41h3.5v-5.81h7.14
					v5.81h5.19v5.41C213.14,88.1,207.95,88.1,207.95,88.1z"/>
				<path class="st1" d="M236.69,89.21c-0.59-0.56-1.29-1.03-2.09-1.42c-0.8-0.38-1.64-0.58-2.53-0.58c-0.68,0-1.31,0.13-1.88,0.4
					c-0.58,0.27-0.87,0.73-0.87,1.38c0,0.62,0.32,1.06,0.95,1.33c0.64,0.27,1.66,0.56,3.08,0.89c0.83,0.18,1.66,0.43,2.51,0.76
					c0.84,0.32,1.6,0.75,2.28,1.29c0.68,0.53,1.23,1.18,1.64,1.95c0.41,0.77,0.62,1.69,0.62,2.75c0,1.39-0.28,2.56-0.84,3.53
					c-0.56,0.96-1.29,1.74-2.2,2.33s-1.91,1.02-3.04,1.29c-1.12,0.27-2.25,0.4-3.37,0.4c-1.8,0-3.57-0.29-5.3-0.86
					c-1.73-0.58-3.17-1.43-4.32-2.55l4.08-4.3c0.65,0.71,1.45,1.3,2.4,1.77c0.95,0.47,1.95,0.71,3.02,0.71
					c0.59,0,1.18-0.14,1.75-0.42c0.58-0.28,0.87-0.78,0.87-1.49c0-0.68-0.35-1.18-1.06-1.51c-0.71-0.32-1.82-0.66-3.33-1.02
					c-0.77-0.18-1.54-0.41-2.31-0.71c-0.77-0.3-1.46-0.69-2.06-1.2c-0.61-0.5-1.1-1.12-1.49-1.86c-0.38-0.74-0.58-1.63-0.58-2.66
					c0-1.33,0.28-2.46,0.84-3.39c0.56-0.93,1.29-1.69,2.17-2.28c0.89-0.59,1.87-1.03,2.95-1.31c1.08-0.28,2.15-0.42,3.22-0.42
					c1.65,0,3.27,0.26,4.86,0.78c1.58,0.52,2.92,1.29,4.01,2.33L236.69,89.21L236.69,89.21z"/>
				<path class="st1" d="M254.35,104.78V73.37h21.11v6.39h-13.8v5.94h13.04v6.08h-13.04v6.52h14.59v6.48H254.35z"/>
				<path class="st1" d="M295.46,104.78V92.72c0-0.62-0.05-1.21-0.15-1.77c-0.1-0.56-0.27-1.06-0.51-1.49
					c-0.24-0.43-0.57-0.77-1-1.02c-0.43-0.25-0.97-0.38-1.62-0.38c-0.65,0-1.22,0.13-1.71,0.38c-0.49,0.25-0.89,0.6-1.22,1.04
					c-0.32,0.44-0.57,0.95-0.73,1.53c-0.16,0.58-0.24,1.18-0.24,1.8v11.98h-7.32V82.69h7.05v3.06h0.09c0.27-0.47,0.61-0.94,1.04-1.4
					c0.43-0.46,0.93-0.85,1.51-1.18c0.58-0.32,1.21-0.59,1.89-0.8c0.68-0.21,1.4-0.31,2.17-0.31c1.48,0,2.73,0.27,3.77,0.8
					c1.04,0.53,1.87,1.22,2.51,2.06c0.64,0.84,1.09,1.81,1.38,2.9c0.28,1.1,0.42,2.19,0.42,3.28v13.66L295.46,104.78L295.46,104.78z
					"/>
				<path class="st1" d="M321.49,89.83c-0.42-0.53-0.98-0.96-1.69-1.29c-0.71-0.33-1.44-0.49-2.17-0.49c-0.77,0-1.46,0.15-2.08,0.47
					c-0.62,0.31-1.15,0.73-1.6,1.24c-0.44,0.52-0.79,1.12-1.04,1.8c-0.25,0.68-0.38,1.4-0.38,2.17c0,0.77,0.12,1.49,0.35,2.17
					c0.24,0.68,0.58,1.28,1.04,1.8c0.46,0.52,1.01,0.92,1.64,1.22c0.64,0.3,1.35,0.44,2.15,0.44c0.74,0,1.47-0.14,2.2-0.42
					c0.72-0.28,1.31-0.69,1.75-1.22l4.04,4.92c-0.92,0.89-2.1,1.58-3.55,2.08c-1.45,0.5-2.99,0.75-4.61,0.75
					c-1.74,0-3.37-0.27-4.89-0.8c-1.51-0.53-2.83-1.31-3.94-2.33c-1.12-1.02-1.99-2.25-2.63-3.7c-0.64-1.45-0.96-3.09-0.96-4.92
					c0-1.8,0.32-3.43,0.96-4.88c0.64-1.45,1.52-2.68,2.63-3.7c1.11-1.02,2.43-1.8,3.94-2.35c1.51-0.55,3.13-0.82,4.84-0.82
					c0.8,0,1.59,0.07,2.37,0.22c0.78,0.15,1.54,0.35,2.26,0.6c0.73,0.25,1.39,0.56,2,0.93c0.61,0.37,1.13,0.78,1.58,1.22
					L321.49,89.83L321.49,89.83z"/>
				<path class="st1" d="M342.81,88.68c-0.33-0.09-0.64-0.15-0.95-0.18s-0.61-0.04-0.91-0.04c-0.98,0-1.8,0.18-2.46,0.53
					c-0.66,0.35-1.2,0.78-1.6,1.28c-0.4,0.5-0.69,1.05-0.87,1.64c-0.18,0.59-0.27,1.11-0.27,1.55v11.32h-7.27V82.72h7.01v3.19h0.09
					c0.56-1.13,1.36-2.06,2.4-2.77c1.03-0.71,2.23-1.07,3.59-1.07c0.29,0,0.58,0.02,0.86,0.04c0.28,0.03,0.51,0.07,0.69,0.13
					L342.81,88.68z"/>
				<path class="st1" d="M359.9,108.11c-0.44,1.15-0.94,2.18-1.49,3.08c-0.55,0.9-1.2,1.67-1.95,2.31
					c-0.75,0.64-1.64,1.11-2.66,1.44c-1.02,0.32-2.23,0.49-3.61,0.49c-0.68,0-1.38-0.04-2.11-0.13c-0.73-0.09-1.35-0.21-1.89-0.35
					l0.8-6.12c0.35,0.12,0.75,0.21,1.18,0.29c0.43,0.07,0.82,0.11,1.17,0.11c1.12,0,1.94-0.26,2.44-0.78
					c0.5-0.52,0.93-1.25,1.29-2.19l0.71-1.82l-9.23-21.74h8.07l4.92,14.19h0.13l4.39-14.19h7.72L359.9,108.11z"/>
				<path class="st1" d="M396.28,93.65c0,1.54-0.24,3.02-0.71,4.44c-0.47,1.42-1.16,2.67-2.06,3.75c-0.9,1.08-2,1.94-3.3,2.6
					c-1.3,0.65-2.78,0.98-4.44,0.98c-1.36,0-2.65-0.27-3.86-0.82s-2.16-1.29-2.84-2.24h-0.09v13.09h-7.27V82.69h6.92v2.71h0.13
					c0.68-0.89,1.62-1.66,2.82-2.33c1.2-0.67,2.61-1,4.24-1c1.6,0,3.05,0.31,4.35,0.93c1.3,0.62,2.4,1.46,3.3,2.53
					c0.9,1.06,1.6,2.3,2.08,3.7C396.03,90.64,396.28,92.11,396.28,93.65L396.28,93.65z M389.23,93.65c0-0.71-0.11-1.4-0.33-2.08
					c-0.22-0.68-0.55-1.28-0.98-1.8c-0.43-0.52-0.97-0.94-1.62-1.26c-0.65-0.33-1.4-0.49-2.26-0.49c-0.83,0-1.57,0.16-2.22,0.49
					c-0.65,0.33-1.21,0.75-1.66,1.29c-0.46,0.53-0.81,1.14-1.06,1.82c-0.25,0.68-0.38,1.38-0.38,2.08s0.12,1.4,0.38,2.08
					c0.25,0.68,0.61,1.29,1.06,1.82c0.46,0.53,1.01,0.96,1.66,1.29c0.65,0.33,1.39,0.49,2.22,0.49c0.86,0,1.61-0.16,2.26-0.49
					c0.65-0.32,1.19-0.75,1.62-1.29c0.43-0.53,0.75-1.15,0.98-1.84C389.11,95.06,389.23,94.36,389.23,93.65z"/>
				<path class="st1" d="M407.9,88.1v8.46c0,1.04,0.2,1.82,0.6,2.34c0.4,0.52,1.11,0.78,2.15,0.78c0.35,0,0.73-0.03,1.13-0.09
					c0.4-0.06,0.73-0.15,1-0.27l0.09,5.32c-0.5,0.18-1.14,0.33-1.91,0.47c-0.77,0.13-1.54,0.2-2.31,0.2c-1.48,0-2.72-0.19-3.73-0.56
					c-1.01-0.37-1.81-0.9-2.42-1.6c-0.61-0.7-1.04-1.53-1.31-2.49c-0.27-0.96-0.4-2.04-0.4-3.22V88.1h-3.55v-5.41h3.5v-5.81h7.14
					v5.81h5.19v5.41C413.09,88.1,407.9,88.1,407.9,88.1z"/>
			</g>
			<path class="st1" d="M219.79,72.77c-2.18,0-3.89,1.57-3.89,3.58c0,2.12,1.44,3.54,3.58,3.54c0.18,0,0.36-0.02,0.52-0.05
				c-0.34,1.57-1.85,2.69-3.28,2.92l-0.29,0.05v3.38l0.38-0.04c1.73-0.17,3.44-0.95,4.69-2.16c1.63-1.57,2.49-3.84,2.49-6.57
				C223.99,74.73,222.22,72.77,219.79,72.77L219.79,72.77z"/>
		</g>
	</g>
</g>
</svg>
